<svg xmlns="http://www.w3.org/2000/svg" width="25" height="24" fill="none" viewBox="0 0 25 24"><g clip-path="url(#clip0_1811_350)"><path fill="#4285F4" d="M24.0078 12.2245C24.0078 11.2413 23.9295 10.5238 23.7598 9.77966H12.7295V14.2176H19.2041C19.0736 15.3205 18.3687 16.9815 16.8022 18.0976L16.7802 18.2462L20.2678 20.9964L20.5095 21.0209C22.7285 18.9347 24.0078 15.8653 24.0078 12.2245Z"/><path fill="#34A853" d="M12.7296 23.9176C15.9016 23.9176 18.5645 22.8545 20.5095 21.0209L16.8023 18.0976C15.8102 18.8018 14.4787 19.2934 12.7296 19.2934C9.6228 19.2934 6.98598 17.2074 6.04603 14.324L5.90825 14.3359L2.2818 17.1927L2.23438 17.3269C4.1663 21.2334 8.13462 23.9176 12.7296 23.9176Z"/><path fill="#FBBC05" d="M6.04597 14.3239C5.79795 13.5798 5.65442 12.7825 5.65442 11.9587C5.65442 11.1349 5.79795 10.3376 6.03292 9.59354L6.02635 9.43507L2.35446 6.53235L2.23432 6.59052C1.43808 8.21162 0.981201 10.032 0.981201 11.9587C0.981201 13.8854 1.43808 15.7058 2.23432 17.3269L6.04597 14.3239Z"/><path fill="#EB4335" d="M12.7295 4.62403C14.9356 4.62403 16.4237 5.59401 17.2722 6.40461L20.5878 3.10928C18.5515 1.1826 15.9015 0 12.7295 0C8.13462 0 4.1663 2.68406 2.23438 6.59056L6.03297 9.59359C6.98597 6.7102 9.62279 4.62403 12.7295 4.62403Z"/></g><defs><clipPath id="clip0_1811_350"><rect width="23.04" height="24" fill="#fff" transform="translate(0.97998)"/></clipPath></defs></svg>